<?xml version="1.0" standalone="no"?><!DOCTYPE svg PUBLIC "-//W3C//DTD SVG 1.1//EN" "http://www.w3.org/Graphics/SVG/1.1/DTD/svg11.dtd"><svg t="1624519241097" class="icon" viewBox="0 0 1024 1024" version="1.1" xmlns="http://www.w3.org/2000/svg" p-id="1928" xmlns:xlink="http://www.w3.org/1999/xlink" width="200" height="200"><path d="M384 102.4H204.8C148.48 102.4 102.4 148.48 102.4 204.8v179.2c0 56.32 46.08 102.4 102.4 102.4h179.2c56.32 0 102.4-46.08 102.4-102.4V204.8c0-56.32-46.08-102.4-102.4-102.4z m0 281.6H204.8V204.8h179.2v179.2zM870.4 243.2c-28.16 0-51.2 23.04-51.2 51.2V384h-179.2V204.8h89.6c28.16 0 51.2-23.04 51.2-51.2s-23.04-51.2-51.2-51.2H640c-56.32 0-102.4 46.08-102.4 102.4v179.2c0 56.32 46.08 102.4 102.4 102.4h179.2c56.32 0 102.4-46.08 102.4-102.4v-89.6c0-28.16-23.04-51.2-51.2-51.2zM384 537.6H204.8c-56.32 0-102.4 46.08-102.4 102.4v179.2c0 56.32 46.08 102.4 102.4 102.4h179.2c56.32 0 102.4-46.08 102.4-102.4v-179.2c0-56.32-46.08-102.4-102.4-102.4z m0 281.6H204.8v-179.2h179.2v179.2zM819.2 537.6h-179.2c-56.32 0-102.4 46.08-102.4 102.4v179.2c0 56.32 46.08 102.4 102.4 102.4h179.2c56.32 0 102.4-46.08 102.4-102.4v-179.2c0-56.32-46.08-102.4-102.4-102.4z m0 281.6h-179.2v-179.2h179.2v179.2z" p-id="1929"></path></svg>