<?xml version="1.0" standalone="no"?><!DOCTYPE svg PUBLIC "-//W3C//DTD SVG 1.1//EN" "http://www.w3.org/Graphics/SVG/1.1/DTD/svg11.dtd"><svg t="1623990284237" class="icon" viewBox="0 0 1024 1024" version="1.1" xmlns="http://www.w3.org/2000/svg" p-id="2668" xmlns:xlink="http://www.w3.org/1999/xlink" width="200" height="200"><path d="M512 230.4C355.84 230.4 230.4 355.84 230.4 512s125.44 281.6 281.6 281.6 281.6-125.44 281.6-281.6S668.16 230.4 512 230.4z m0 460.8c-99.84 0-179.2-79.36-179.2-179.2s79.36-179.2 179.2-179.2 179.2 79.36 179.2 179.2-79.36 179.2-179.2 179.2zM281.6 215.04c12.8 25.6 46.08 33.28 69.12 17.92 25.6-12.8 33.28-46.08 17.92-69.12l-20.48-33.28c-12.8-25.6-46.08-33.28-69.12-17.92-23.04 15.36-30.72 46.08-15.36 69.12l17.92 33.28zM742.4 808.96c-12.8-25.6-46.08-33.28-69.12-17.92-25.6 12.8-33.28 46.08-17.92 69.12l20.48 33.28c12.8 25.6 46.08 33.28 69.12 17.92 25.6-15.36 33.28-46.08 17.92-69.12l-20.48-33.28zM140.8 460.8H102.4c-28.16 0-51.2 23.04-51.2 51.2s23.04 51.2 51.2 51.2h38.4c28.16 0 51.2-23.04 51.2-51.2s-23.04-51.2-51.2-51.2zM921.6 460.8h-38.4c-28.16 0-51.2 23.04-51.2 51.2s23.04 51.2 51.2 51.2H921.6c28.16 0 51.2-23.04 51.2-51.2s-23.04-51.2-51.2-51.2zM353.28 788.48c-25.6-15.36-56.32-5.12-69.12 17.92l-20.48 33.28c-15.36 25.6-5.12 56.32 17.92 69.12 25.6 12.8 56.32 5.12 69.12-17.92l20.48-33.28c12.8-23.04 5.12-53.76-17.92-69.12zM673.28 235.52c25.6 15.36 56.32 5.12 69.12-17.92l20.48-33.28c12.8-25.6 5.12-56.32-20.48-71.68-25.6-12.8-56.32-5.12-69.12 17.92l-20.48 33.28c-12.8 25.6-5.12 56.32 20.48 71.68z" p-id="2669"></path></svg>