<?xml version="1.0" standalone="no"?><!DOCTYPE svg PUBLIC "-//W3C//DTD SVG 1.1//EN" "http://www.w3.org/Graphics/SVG/1.1/DTD/svg11.dtd"><svg t="1624522402361" class="icon" viewBox="0 0 1024 1024" version="1.1" xmlns="http://www.w3.org/2000/svg" p-id="1781" xmlns:xlink="http://www.w3.org/1999/xlink" width="200" height="200"><path d="M911.36 842.24l-130.56-130.56c51.2-66.56 81.92-151.04 81.92-240.64C865.28 253.44 688.64 76.8 471.04 76.8S76.8 253.44 76.8 471.04s176.64 394.24 394.24 394.24c92.16 0 174.08-30.72 240.64-81.92l130.56 130.56c20.48 20.48 51.2 20.48 69.12 0s20.48-51.2 0-71.68z m-440.32-79.36C309.76 762.88 179.2 632.32 179.2 471.04 179.2 309.76 309.76 179.2 471.04 179.2c161.28 0 291.84 130.56 291.84 291.84 0 161.28-130.56 291.84-291.84 291.84z" p-id="1782"></path></svg>